<?xml version="1.0" standalone="no"?>
<!DOCTYPE svg PUBLIC "-//W3C//DTD SVG 20010904//EN"
 "http://www.w3.org/TR/2001/REC-SVG-20010904/DTD/svg10.dtd">
<svg version="1.0" xmlns="http://www.w3.org/2000/svg"
 width="105.000000pt" height="105.000000pt" viewBox="0 0 105.000000 105.000000"
 preserveAspectRatio="xMidYMid meet">
<metadata>
Created by potrace 1.11, written by Peter Selinger 2001-2013
</metadata>
<g transform="translate(0.000000,105.000000) scale(0.100000,-0.100000)"
fill="#000000" stroke="none">
<path d="M465 736 c-105 -26 -197 -83 -255 -157 -32 -39 -38 -54 -39 -96 -1
-19 -7 -23 -32 -23 -32 0 -69 -15 -69 -29 0 -4 11 -13 24 -19 13 -6 23 -18 23
-28 -1 -11 7 -20 23 -24 18 -4 26 -14 28 -33 5 -39 24 -29 42 21 12 32 19 39
30 32 22 -14 77 -12 108 4 15 8 40 29 56 46 65 70 158 91 261 59 93 -29 141
-23 173 23 13 18 15 18 38 -13 45 -61 64 -64 64 -9 0 28 4 40 14 40 21 0 30
19 16 35 -9 11 -6 17 15 27 24 13 25 16 10 28 -18 15 -76 16 -104 1 -15 -8
-21 -5 -32 17 -25 47 -77 78 -170 98 -54 11 -177 11 -224 0z"/>
</g>
</svg>
